<?xml version="1.0" encoding="iso-8859-1"?>
<!-- Generator: Adobe Illustrator 21.0.0, SVG Export Plug-In . SVG Version: 6.00 Build 0)  -->
<svg version="1.1" id="Capa_1" xmlns="http://www.w3.org/2000/svg" xmlns:xlink="http://www.w3.org/1999/xlink" x="0px" y="0px"
	 viewBox="0 0 512 512" style="enable-background:new 0 0 512 512;" xml:space="preserve">
<circle style="fill:#FFD400;" cx="256" cy="256" r="256"/>
<path style="fill:#FFB000;" d="M512,256c0-11.229-0.729-22.287-2.131-33.134L366.276,79.272L115.679,360.55l57.748,57.749
	l-27.703,18.329l72.607,72.607C230.626,511.048,243.201,512,256,512C397.385,512,512,397.385,512,256z"/>
<rect x="145.72" y="79.27" style="fill:#4A7AFF;" width="220.55" height="357.36"/>
<rect x="255.57" y="79.27" style="fill:#2864F0;" width="110.7" height="357.36"/>
<rect x="174.29" y="112.55" style="fill:#A3D4FF;" width="163.43" height="266.89"/>
<rect x="255.57" y="112.55" style="fill:#87C7FF;" width="82.14" height="266.89"/>
<polygon style="fill:#FFFFFF;" points="240.255,131.353 115.679,131.353 115.679,360.55 292.07,360.55 292.07,183.167 "/>
<polygon style="fill:#F2F6FC;" points="292.07,183.167 240.255,131.353 203.19,131.353 203.19,360.55 292.07,360.55 "/>
<polygon style="fill:#DCE1EB;" points="240.255,183.167 292.07,183.167 240.255,131.353 "/>
<rect x="141.79" y="201" style="fill:#CDD2E1;" width="124.16" height="20"/>
<rect x="203.19" y="201" style="fill:#BEC3D2;" width="62.766" height="20"/>
<rect x="141.79" y="240" style="fill:#CDD2E1;" width="124.16" height="20"/>
<rect x="203.19" y="240" style="fill:#BEC3D2;" width="62.766" height="20"/>
<rect x="141.79" y="279" style="fill:#CDD2E1;" width="124.16" height="20"/>
<rect x="203.19" y="279" style="fill:#BEC3D2;" width="62.766" height="20"/>
<circle style="fill:#2864F0;" cx="256" cy="409.33" r="19"/>
<path style="fill:#0053BF;" d="M256,390.333c-0.145,0-0.285,0.018-0.429,0.021v37.957c0.144,0.003,0.284,0.022,0.429,0.022
	c10.493,0,19-8.507,19-19S266.493,390.333,256,390.333z"/>
<g>
</g>
<g>
</g>
<g>
</g>
<g>
</g>
<g>
</g>
<g>
</g>
<g>
</g>
<g>
</g>
<g>
</g>
<g>
</g>
<g>
</g>
<g>
</g>
<g>
</g>
<g>
</g>
<g>
</g>
</svg>
