<?xml version="1.0"?>
<svg xmlns="http://www.w3.org/2000/svg" xmlns:xlink="http://www.w3.org/1999/xlink" xmlns:svgjs="http://svgjs.com/svgjs" version="1.1" width="512" height="512" x="0" y="0" viewBox="0 0 32 32" style="enable-background:new 0 0 512 512" xml:space="preserve" class=""><g><path xmlns="http://www.w3.org/2000/svg" d="m26 32h-20c-3.314 0-6-2.686-6-6v-20c0-3.314 2.686-6 6-6h20c3.314 0 6 2.686 6 6v20c0 3.314-2.686 6-6 6z" fill="#c2c2c2" data-original="#ffe6e2" style="" class=""/><path xmlns="http://www.w3.org/2000/svg" d="m26 32h-20c-3.314 0-6-2.686-6-6v-20c0-3.314 2.686-6 6-6h20c3.314 0 6 2.686 6 6v20c0 3.314-2.686 6-6 6z" fill="#c2c2c2" data-original="#ffe6e2" style="" class=""/><path xmlns="http://www.w3.org/2000/svg" d="m22.833 14h-8.333c-.643 0-1.167.523-1.167 1.167v1.667c0 .643.523 1.167 1.167 1.167h8.333c.644-.001 1.167-.524 1.167-1.168v-1.667c0-.643-.523-1.166-1.167-1.166z" fill="#484747" data-original="#fc573b" style="" class=""/><path xmlns="http://www.w3.org/2000/svg" d="m22.833 20h-8.333c-.643 0-1.167.523-1.167 1.167v1.667c0 .643.523 1.167 1.167 1.167h8.333c.644-.001 1.167-.524 1.167-1.168v-1.667c0-.643-.523-1.166-1.167-1.166z" fill="#484747" data-original="#fc573b" style="" class=""/><circle xmlns="http://www.w3.org/2000/svg" cx="10" cy="16" fill="#727272" r="2" data-original="#fd907e" style="" class=""/><path xmlns="http://www.w3.org/2000/svg" d="m22.833 8h-8.333c-.643 0-1.167.523-1.167 1.167v1.667c0 .643.523 1.167 1.167 1.167h8.333c.644-.001 1.167-.524 1.167-1.168v-1.666c0-.644-.523-1.167-1.167-1.167z" fill="#484747" data-original="#fc573b" style="" class=""/><g xmlns="http://www.w3.org/2000/svg" fill="#fd907e"><circle cx="10" cy="10" r="2" fill="#727272" data-original="#fd907e" style="" class=""/><circle cx="10" cy="22" r="2" fill="#727272" data-original="#fd907e" style="" class=""/></g></g></svg>
